<?xml version="1.0" encoding="UTF-8"?>
<svg version="1.1" xmlns="http://www.w3.org/2000/svg" width="796" height="314">
<path d="M0 0 C0.9667717 -0.00029205 1.9335434 -0.00058411 2.92961121 -0.00088501 C6.10030335 0.00049965 9.27075555 0.01602004 12.44140625 0.03173828 C14.64957552 0.03547148 16.85774645 0.038317 19.06591797 0.04031372 C24.85927964 0.04792597 30.65253999 0.06755374 36.44586182 0.08972168 C42.3649356 0.11023206 48.28402587 0.11932653 54.203125 0.12939453 C65.80342977 0.15080193 77.40365956 0.18490872 89.00390625 0.22705078 C87.35977028 4.53288107 85.21637143 8.26133152 82.69140625 12.10205078 C82.2826123 12.7248291 81.87381836 13.34760742 81.45263672 13.98925781 C80.65146696 15.20648706 79.84848308 16.42252473 79.04345703 17.63720703 C78.23134802 18.87921123 77.45265269 20.14308043 76.6875 21.41455078 C71.77834499 29.24021486 63.66681872 34.07622242 54.9717865 36.59786987 C49.41469511 37.77595508 43.84210359 37.62634416 38.18359375 37.59814453 C36.19915533 37.61107906 34.21471676 37.62403634 32.23028755 37.63831425 C27.38453518 37.66811922 22.5386954 37.66482188 17.69287109 37.6628418 C14.95777795 37.66280043 12.22307786 37.67342864 9.48806763 37.69459534 C6.9260215 37.71320962 4.36378524 37.71525873 1.80172729 37.698349 C-5.27202694 37.75910835 -10.0087266 38.35680038 -15.99609375 42.22705078 C-20.06398688 46.71216372 -21.2555111 51.28120519 -20.99609375 57.22705078 C-19.253847 63.03453993 -16.3898338 67.19479808 -11.12780762 70.3458252 C-8.70884532 71.34579592 -6.93804701 71.49058046 -4.32617188 71.51416016 C-2.94322937 71.53428162 -2.94322937 71.53428162 -1.53234863 71.55480957 C-0.54069702 71.56008667 0.45095459 71.56536377 1.47265625 71.57080078 C2.50394653 71.58542358 3.53523682 71.60004639 4.59777832 71.6151123 C7.8997813 71.66159833 11.20172645 71.69576191 14.50390625 71.72705078 C18.82703352 71.76854565 23.14976285 71.82245745 27.47265625 71.88330078 C28.44811401 71.88857788 29.42357178 71.89385498 30.42858887 71.89929199 C47.54034143 72.1416351 61.73164157 76.23392373 74.16015625 88.32470703 C84.77559787 99.55410143 88.53120507 113.06624485 88.35522461 128.34570312 C87.85856214 142.70565158 82.43785266 155.59948203 72.48046875 165.97314453 C59.99304196 177.33788469 45.48037175 180.40692665 29.09960938 180.34057617 C28.14259125 180.3407222 27.18557312 180.34086823 26.19955444 180.34101868 C23.06139801 180.34032645 19.92330221 180.33256654 16.78515625 180.32470703 C14.59940625 180.3228404 12.41365584 180.32141765 10.22790527 180.32041931 C4.49376253 180.31661345 -1.24035462 180.30679974 -6.9744873 180.29571533 C-12.83324843 180.28545961 -18.69201372 180.28091279 -24.55078125 180.27587891 C-36.03256329 180.26517565 -47.51432638 180.24812254 -58.99609375 180.22705078 C-57.17585715 176.31210162 -54.63122326 173.46017539 -51.68359375 170.35205078 C-48.84335131 167.3301874 -46.03948429 164.31674071 -43.421875 161.09814453 C-35.25890314 151.4366561 -24.5348497 145.83658053 -11.99609375 144.22705078 C-8.10327196 144.07498892 -4.21184737 144.06627055 -0.31640625 144.05126953 C1.99740498 144.02807579 4.3112071 144.00395864 6.625 143.97900391 C10.25445712 143.9438928 13.88357722 143.91453352 17.51318359 143.90112305 C21.02872915 143.88560978 24.54330572 143.84538668 28.05859375 143.80126953 C29.67457962 143.80413216 29.67457962 143.80413216 31.32321167 143.80705261 C37.64969683 143.70487969 42.79388602 143.04601187 48.00390625 139.22705078 C52.06179037 134.25614273 52.58531711 130.16638181 52.32421875 123.81298828 C51.73328427 119.04227331 50.09343158 116.28712948 46.69140625 112.97705078 C40.3446024 108.84424827 34.23296579 108.93376112 26.90234375 108.91845703 C24.69791417 108.89328418 22.49348715 108.86788636 20.2890625 108.84228516 C16.84001407 108.81365321 13.39101031 108.78961698 9.94189453 108.77075195 C6.59513891 108.74890127 3.24891225 108.70943727 -0.09765625 108.66845703 C-1.11058746 108.66834122 -2.12351868 108.6682254 -3.16714478 108.66810608 C-18.11705774 108.46478161 -31.2283903 103.75547193 -41.99609375 93.22705078 C-41.99609375 92.56705078 -41.99609375 91.90705078 -41.99609375 91.22705078 C-42.65609375 91.22705078 -43.31609375 91.22705078 -43.99609375 91.22705078 C-53.74408312 79.94243254 -57.63236444 65.96783852 -57.3125 51.21142578 C-55.74328976 36.4104798 -49.99423394 23.37262197 -38.99609375 13.22705078 C-27.36968594 4.35024598 -14.55103719 -0.11664944 0 0 Z " fill="#F7F7F7" transform="translate(226.99609375,78.77294921875)"/>
<path d="M0 0 C0.93736496 -0.00014603 1.87472992 -0.00029205 2.84049988 -0.0004425 C5.91916265 0.00025062 8.99776389 0.0080148 12.07641602 0.01586914 C14.21875475 0.01773545 16.36109391 0.01915835 18.50343323 0.02015686 C24.12744333 0.02396523 29.75142739 0.03378113 35.37542725 0.04486084 C41.12015429 0.05511113 46.86488557 0.05966222 52.60961914 0.06469727 C63.87069826 0.07540495 75.13175809 0.09246114 86.39282227 0.11352539 C79.6033667 14.06443588 68.92727059 28.03041763 54.39282227 34.11352539 C51.45427916 34.98635497 48.8029448 35.25091155 45.7421875 35.28710938 C44.36310463 35.30734413 44.36310463 35.30734413 42.9561615 35.32798767 C41.46881248 35.34364525 41.46881248 35.34364525 39.95141602 35.35961914 C37.8179493 35.392618 35.68448586 35.42582841 33.55102539 35.45922852 C30.21454651 35.50613901 26.87807445 35.55045468 23.54150391 35.59033203 C-5.01996239 35.94796605 -32.24011917 36.44445893 -53.60717773 58.11352539 C-54.25428711 58.75032227 -54.90139648 59.38711914 -55.56811523 60.04321289 C-62.62003223 67.46466265 -66.05818909 76.64955568 -69.60717773 86.11352539 C-77.85717773 86.11352539 -86.10717773 86.11352539 -94.60717773 86.11352539 C-94.58361206 89.04799561 -94.58361206 89.04799561 -94.55957031 92.04174805 C-94.51087997 98.55956914 -94.47658182 105.07734671 -94.45174122 111.59530067 C-94.43619176 115.54093356 -94.4151539 119.48636675 -94.38085938 123.43188477 C-94.34787773 127.25095918 -94.33024451 131.0698435 -94.32254601 134.88904953 C-94.31707114 136.33445598 -94.30638397 137.77985394 -94.28998756 139.22517776 C-94.15013957 152.08284966 -94.2664073 165.37527536 -103.60717773 175.11352539 C-104.12151367 175.69231445 -104.63584961 176.27110352 -105.16577148 176.86743164 C-110.0322098 182.08397344 -115.80615379 186.01137275 -121.60717773 190.11352539 C-123.17424877 191.27404498 -124.73732898 192.43999131 -126.29467773 193.61352539 C-126.93791992 194.09821289 -127.58116211 194.58290039 -128.24389648 195.08227539 C-128.6937793 195.42258789 -129.14366211 195.76290039 -129.60717773 196.11352539 C-130.44058923 193.20550097 -130.73101181 190.62948583 -130.72743225 187.6083374 C-130.72949425 186.26223892 -130.72949425 186.26223892 -130.7315979 184.88894653 C-130.72620499 183.42375076 -130.72620499 183.42375076 -130.72070312 181.92895508 C-130.72084915 180.89449249 -130.72099518 179.86002991 -130.72114563 178.79421997 C-130.7204489 175.37459212 -130.71266767 171.95501873 -130.70483398 168.53540039 C-130.70296895 166.16457143 -130.70154545 163.79374208 -130.70054626 161.4229126 C-130.69672779 155.18236223 -130.68690319 148.94183512 -130.67584229 142.70129395 C-130.66561379 136.3334993 -130.66104556 129.96570089 -130.65600586 123.59790039 C-130.64528035 111.1030985 -130.62821193 98.60831388 -130.60717773 86.11352539 C-132.43279236 86.11488495 -132.43279236 86.11488495 -134.29528809 86.11627197 C-135.9181315 86.11700523 -137.54097493 86.11771612 -139.16381836 86.1184082 C-139.96289612 86.11906281 -140.76197388 86.11971741 -141.58526611 86.12039185 C-148.42884242 86.12257494 -155.26605741 86.05777942 -162.10717773 85.86352539 C-163.18225586 85.8493457 -164.25733398 85.83516602 -165.36499023 85.82055664 C-181.85409373 85.31906323 -193.48522172 76.0332827 -205.74511719 65.89770508 C-210.85031967 61.6841206 -216.08466513 57.76895634 -221.60717773 54.11352539 C-222.59717773 53.45352539 -223.58717773 52.79352539 -224.60717773 52.11352539 C-224.60717773 51.12352539 -224.60717773 50.13352539 -224.60717773 49.11352539 C-172.13717773 49.11352539 -119.66717773 49.11352539 -65.60717773 49.11352539 C-65.27717773 47.13352539 -64.94717773 45.15352539 -64.60717773 43.11352539 C-57.84536802 25.38191279 -44.16561741 13.35545144 -27.60717773 5.11352539 C-18.42694747 1.10297025 -9.94478746 -0.0409789 0 0 Z " fill="#F6F6F6" transform="translate(229.607177734375,29.886474609375)"/>
<path d="M0 0 C1.13953125 0.15855469 2.2790625 0.31710938 3.453125 0.48046875 C11.77981452 1.94206851 18.34494772 3.83071177 23.3671875 10.93359375 C27.06375021 17.8805823 26.93283087 25.68376972 25.59765625 33.29296875 C22.90384136 42.113892 15.28282531 47.97766515 8 53 C8.89203125 53.88042969 9.7840625 54.76085937 10.703125 55.66796875 C11.88555101 56.84101043 13.06783519 58.01419509 14.25 59.1875 C14.83652344 59.76564453 15.42304687 60.34378906 16.02734375 60.93945312 C19.24981837 64.14382396 22.24173266 67.37465358 25 71 C26.64800856 67.33552568 27.33580973 64.18796534 27.625 60.1875 C27.810625 57.6196875 27.810625 57.6196875 28 55 C33.94 55 39.88 55 46 55 C45.73287322 64.52752167 44.9372099 71.55660976 41.05859375 80.390625 C39.81203475 82.99400236 39.81203475 82.99400236 40 86 C41.6060088 87.72519312 43.28775988 89.38018849 45 91 C46.04655758 92.10239171 47.08402513 93.21346874 48.11328125 94.33203125 C48.63857422 94.90244141 49.16386719 95.47285156 49.70507812 96.06054688 C50.23552734 96.63869141 50.76597656 97.21683594 51.3125 97.8125 C51.86228516 98.40998047 52.41207031 99.00746094 52.97851562 99.62304688 C54.31996978 101.08114922 55.66012065 102.5404504 57 104 C56.505 105.485 56.505 105.485 56 107 C52.56257082 107.05802698 49.12526747 107.09360486 45.6875 107.125 C44.71103516 107.14175781 43.73457031 107.15851563 42.72851562 107.17578125 C41.79072266 107.18222656 40.85292969 107.18867188 39.88671875 107.1953125 C39.02264404 107.20578613 38.15856934 107.21625977 37.26831055 107.22705078 C35 107 35 107 32 105 C32 104.34 32 103.68 32 103 C29.35261084 101.5393715 28.10551666 101 25 101 C23.10798825 102.02117708 23.10798825 102.02117708 21.1875 103.375 C10.86177369 110.04526845 -2.30293044 110.29951005 -14.1875 108.3125 C-24.09414225 105.96830264 -31.11554109 101.33984465 -37 93 C-40.86368733 86.6645935 -40.92495254 79.20079874 -40 72 C-36.67899182 62.03697545 -30.09228059 55.03737353 -21 50 C-20.34 50 -19.68 50 -19 50 C-19.62648438 49.13117188 -20.25296875 48.26234375 -20.8984375 47.3671875 C-21.72434946 46.20340247 -22.54984844 45.03932429 -23.375 43.875 C-23.99375 43.02035156 -23.99375 43.02035156 -24.625 42.1484375 C-29.56709244 35.13385468 -30.96965414 28.52586139 -30 20 C-28.09379566 13.62305867 -24.93588464 7.98452026 -19.3359375 4.19921875 C-12.58064993 0.75027905 -7.55303986 -1.08056495 0 0 Z M-11 21 C-12.53647988 25.48139966 -11.72137081 28.65915187 -10 33 C-8.16310555 35.49954072 -6.15451795 37.7709547 -4 40 C1.58928103 38.64502278 4.82664404 34.53942631 8 30 C9.30452256 26.30385276 9.37990294 24.90754592 7.875 21.3125 C5.18549155 17.99543958 2.7606004 16.26409006 -1.5 15.625 C-5.53229767 16.22984465 -8.15934458 18.15934458 -11 21 Z M-18 68 C-21.35996347 71.76723177 -21.64433257 75.58709779 -21.46875 80.49609375 C-20.650956 84.86447672 -18.51204317 87.3804802 -15 90 C-7.98371073 93.92966589 -0.42612111 93.52917959 7.1484375 91.39453125 C10.91625768 89.95576447 12.74961475 88.24832395 15 85 C14.55197021 84.55720703 14.10394043 84.11441406 13.64233398 83.65820312 C11.57129904 81.60823317 9.50439303 79.55414567 7.4375 77.5 C6.73302734 76.80390625 6.02855469 76.1078125 5.30273438 75.390625 C1.11812987 71.22530438 -2.85885614 66.96393016 -6.66772461 62.45117188 C-7.10737549 61.97228516 -7.54702637 61.49339844 -8 61 C-11.30408433 61 -15.58457405 65.93709568 -18 68 Z " fill="#F2F2F2" transform="translate(727,29)"/>
<path d="M0 0 C7.67726991 5.55940235 11.58711499 12.99279784 13.875 22.02734375 C14.1875 24.375 14.1875 24.375 13.1875 27.375 C6.5875 27.045 -0.0125 26.715 -6.8125 26.375 C-7.8025 23.405 -8.7925 20.435 -9.8125 17.375 C-13.91311313 13.166476 -17.94833969 11.51655852 -23.7734375 11.07421875 C-25.24472538 11.05971681 -26.7161547 11.0560693 -28.1875 11.0625 C-28.91710937 11.04638672 -29.64671875 11.03027344 -30.3984375 11.01367188 C-35.62078792 11.00900906 -39.12861563 12.07954798 -43.8125 14.375 C-44.8025 14.705 -45.7925 15.035 -46.8125 15.375 C-47.58096215 20.05984153 -48.14011493 24.1113424 -46.9375 28.75 C-41.62552083 35.31185662 -32.59088951 36.17786807 -24.6875 37.3125 C2.93923642 41.75495698 2.93923642 41.75495698 11.1875 51.375 C14.90186653 57.04062079 15.87359524 62.04816609 15.75 68.75 C15.73976807 69.58490967 15.72953613 70.41981934 15.71899414 71.2800293 C15.42676699 79.77448491 13.16252471 85.88068221 6.875 91.75 C3.21980727 94.54052348 -0.55113287 96.6567068 -4.8125 98.375 C-5.89144531 98.82552734 -5.89144531 98.82552734 -6.9921875 99.28515625 C-20.65860932 103.97889537 -38.60890496 103.084185 -51.8125 97.375 C-60.84185703 92.73324164 -66.27437824 86.48675545 -70.1484375 77.1953125 C-70.8125 74.375 -70.8125 74.375 -70.8125 65.375 C-64.2125 65.375 -57.6125 65.375 -50.8125 65.375 C-50.420625 66.921875 -50.02875 68.46875 -49.625 70.0625 C-47.81079456 76.06463763 -45.24755999 78.95454834 -39.8125 82.125 C-31.46069844 85.60491732 -22.58187506 85.22555612 -14.08203125 82.34765625 C-10.47147457 80.80027482 -8.4450556 79.34506273 -5.8125 76.375 C-4.51917813 72.26680112 -4.69518012 69.86941951 -5.6875 65.6875 C-9.10153106 60.36562805 -14.05997488 59.04973148 -20.07226562 57.57592773 C-24.99856492 56.56274856 -29.94085761 55.65318966 -34.88867188 54.75195312 C-46.47902041 52.52140362 -56.44864584 50.0003048 -64.2890625 40.75390625 C-68.91252811 33.53418687 -68.82356695 24.65983881 -67.8125 16.375 C-65.74039338 8.92505387 -61.19503903 3.60491204 -54.8125 -0.625 C-38.00014555 -9.70319981 -16.54800547 -9.70816321 0 0 Z " fill="#F2F2F2" transform="translate(430.8125,157.625)"/>
<path d="M0 0 C8.51885775 5.16340839 14.26228069 12.10482024 17.20703125 21.68359375 C20.4282314 35.37743996 20.12634399 48.56149321 13.6640625 61.28515625 C8.59246768 69.1166422 1.57798579 74.22155178 -7.37890625 76.84765625 C-19.23510485 79.11678517 -27.6316111 76.14298562 -37.828125 70.31640625 C-38.158125 81.20640625 -38.488125 92.09640625 -38.828125 103.31640625 C-44.768125 103.31640625 -50.708125 103.31640625 -56.828125 103.31640625 C-56.828125 68.99640625 -56.828125 34.67640625 -56.828125 -0.68359375 C-51.218125 -0.68359375 -45.608125 -0.68359375 -39.828125 -0.68359375 C-38.838125 0.96640625 -37.848125 2.61640625 -36.828125 4.31640625 C-35.796875 3.53265625 -34.765625 2.74890625 -33.703125 1.94140625 C-24.7291348 -4.8788263 -9.93193473 -4.78265985 0 0 Z M-38.828125 5.31640625 C-37.828125 7.31640625 -37.828125 7.31640625 -37.828125 7.31640625 Z M-35.16796875 20.06640625 C-38.58072495 25.70170474 -39.03044219 30.67384631 -39.078125 37.12890625 C-39.09875 37.81533203 -39.119375 38.50175781 -39.140625 39.20898438 C-39.19011831 45.74828774 -37.33049018 50.14632321 -33.578125 55.56640625 C-29.58184585 59.5626854 -25.98584632 61.08101847 -20.390625 61.69140625 C-13.1345574 60.92760966 -8.70341578 58.918019 -4.0546875 53.23046875 C0.33174618 46.38539708 0.82733906 38.07741599 -0.390625 30.19140625 C-1.93587045 23.68893043 -5.19555889 18.38485105 -10.453125 14.25390625 C-19.63903977 11.70226326 -29.01348761 12.02790027 -35.16796875 20.06640625 Z " fill="#F4F4F4" transform="translate(512.828125,181.68359375)"/>
<path d="M0 0 C2.81256281 -0.02684312 5.62487241 -0.04676188 8.4375 -0.0625 C9.23994141 -0.07087891 10.04238281 -0.07925781 10.86914062 -0.08789062 C12.91295221 -0.0965143 14.95683902 -0.0522815 17 0 C18.97829072 1.97829072 18.25503932 5.82327027 18.31640625 8.53515625 C18.33718735 9.28840683 18.35796844 10.04165741 18.37937927 10.81773376 C18.44495425 13.2325599 18.50379621 15.64749798 18.5625 18.0625 C18.6056777 19.69597529 18.64929173 21.3294391 18.69335938 22.96289062 C18.80064362 26.97514464 18.90188821 30.98751164 19 35 C19.73605469 34.50628906 20.47210937 34.01257813 21.23046875 33.50390625 C22.69419922 32.54291016 22.69419922 32.54291016 24.1875 31.5625 C25.15042969 30.92441406 26.11335937 30.28632812 27.10546875 29.62890625 C34.39106169 25.5289167 43.77654532 26.37686734 51.8125 27.5625 C58.99650573 30.80234572 63.38198434 35.5184723 66.30859375 42.7890625 C67.65660992 47.09966788 68.12389394 51.10613404 68.11352539 55.61645508 C68.11341209 57.26760063 68.11341209 57.26760063 68.11329651 58.95210266 C68.10813522 60.1293541 68.10297394 61.30660553 68.09765625 62.51953125 C68.0962413 63.73323898 68.09482635 64.94694672 68.09336853 66.19743347 C68.08777665 70.06914752 68.07522558 73.94080347 68.0625 77.8125 C68.05748395 80.43945229 68.05292123 83.06640549 68.04882812 85.69335938 C68.03780987 92.12892859 68.02055075 98.56445445 68 105 C62.06 105 56.12 105 50 105 C48.87556353 98.25338119 48.87556353 98.25338119 48.91821289 94.91333008 C48.9247438 94.16847855 48.93127472 93.42362701 48.93800354 92.65620422 C48.94943893 91.86860214 48.96087433 91.08100006 48.97265625 90.26953125 C48.98531033 88.56185104 48.99767071 86.85416864 49.00976562 85.14648438 C49.03445923 82.48519849 49.06235444 79.82403075 49.09594727 77.1628418 C50.18282607 60.94041705 50.18282607 60.94041705 44.9375 46.375 C39.87258086 44.00418678 35.21512062 43.53141679 29.75 44.6875 C24.15434307 47.35815444 21.25317617 50.20906367 19 56 C18.53812494 59.76643666 18.51155808 63.51315019 18.48828125 67.3046875 C18.47033005 68.38380402 18.45237885 69.46292053 18.43388367 70.57473755 C18.37987133 74.00811909 18.3459133 77.44136231 18.3125 80.875 C18.279319 83.20835254 18.24482862 85.54168685 18.20898438 87.875 C18.12415004 93.58320928 18.05576171 99.29143666 18 105 C15.18743719 105.02684312 12.37512759 105.04676188 9.5625 105.0625 C8.76005859 105.07087891 7.95761719 105.07925781 7.13085938 105.08789062 C5.08704779 105.0965143 3.04316098 105.0522815 1 105 C-1.04602955 102.95397045 -0.19591695 98.66182109 -0.22119141 95.84692383 C-0.2326973 94.99144455 -0.24420319 94.13596527 -0.25605774 93.25456238 C-0.29294604 90.40542258 -0.32249402 87.55626084 -0.3515625 84.70703125 C-0.37468365 82.72417393 -0.39807404 80.74131973 -0.42172241 78.75846863 C-0.4702979 74.58615978 -0.51518809 70.4138308 -0.55761719 66.24145508 C-0.61199275 60.92808476 -0.67592043 55.6148817 -0.74279213 50.30165577 C-0.79326802 46.19638748 -0.83822554 42.09107205 -0.88163376 37.9857235 C-0.90302009 36.02955839 -0.92613639 34.07341132 -0.9510994 32.11728859 C-1.08550608 21.34819787 -1.02440268 10.73282772 0 0 Z " fill="#F3F3F3" transform="translate(597,31)"/>
<path d="M0 0 C8.55938493 5.77608843 14.12611012 13.93475078 16.5390625 23.94140625 C17.39143685 29.59741569 17.41744221 35.30030823 17 41 C15.32063825 42.67936175 13.23489172 42.16787879 10.92944336 42.20532227 C9.84839828 42.22526749 8.76735321 42.24521271 7.65354919 42.26576233 C5.889515 42.29083107 5.889515 42.29083107 4.08984375 42.31640625 C2.89267227 42.33718735 1.69550079 42.35796844 0.46205139 42.37937927 C-3.37940487 42.44500279 -7.22093201 42.50381903 -11.0625 42.5625 C-13.65951267 42.60567305 -16.25651806 42.64928693 -18.85351562 42.69335938 C-25.23560117 42.80069716 -31.61775793 42.90243931 -38 43 C-37.54236895 44.45692196 -37.07752764 45.91158056 -36.60961914 47.36523438 C-36.35152969 48.17553101 -36.09344025 48.98582764 -35.82752991 49.82067871 C-34.83073575 52.44576176 -33.68595315 53.82944302 -31.4375 55.5 C-30.83808594 55.9640625 -30.23867188 56.428125 -29.62109375 56.90625 C-24.45949912 60.38877168 -17.99254252 59.48514312 -12 59 C-8.04589565 57.19637346 -6.10813274 55.17695091 -3.5625 51.8125 C-1 49 -1 49 2.25 48.0625 C6.582146 47.99029757 10.71932166 48.36906102 15 49 C14.85934407 56.59542047 12.02467788 61.37198368 7 67 C-1.53322551 74.52374966 -11.24466744 76.63492172 -22.40625 76.34375 C-33.50237953 75.28238109 -42.47095222 71.42827753 -49.77734375 62.93359375 C-57.75048438 52.03631842 -58.19273499 39.01949278 -57 26 C-55.28552199 16.23071023 -50.45923255 8.11791876 -42.50390625 2.1171875 C-30.17187787 -5.6536797 -13.02904589 -7.29108859 0 0 Z M-35.3125 18.3125 C-37.55189757 21.47448917 -37.55189757 21.47448917 -38 28 C-26.12 28 -14.24 28 -2 28 C-2.602426 21.58824861 -2.602426 21.58824861 -5.75 17.1875 C-6.23984375 16.62417969 -6.7296875 16.06085938 -7.234375 15.48046875 C-12.18309277 11.3309908 -17.72983229 11.57915912 -23.8984375 11.68359375 C-29.21998341 12.22647186 -31.67582448 14.67582448 -35.3125 18.3125 Z " fill="#F1F1F1" transform="translate(749,183)"/>
<path d="M0 0 C0.57492187 0.45890625 1.14984375 0.9178125 1.7421875 1.390625 C10.65125474 9.26731106 12.66237301 20.22989421 13.8359375 31.53125 C14 35 14 35 13 39 C-5.15 39 -23.3 39 -42 39 C-40.02721628 48.44688354 -40.02721628 48.44688354 -36 52 C-36 52.66 -36 53.32 -36 54 C-28.79877895 56.76489398 -22.59777198 57.74688931 -15 56 C-11.02013169 54.04624646 -9.42395918 52.8202019 -7.38671875 48.87890625 C-5 46 -5 46 -3.08618164 45.51391602 C-0.78111884 45.40908218 1.44755345 45.47608555 3.75 45.625 C4.54277344 45.65207031 5.33554687 45.67914063 6.15234375 45.70703125 C8.10273366 45.77752727 10.05171901 45.88514501 12 46 C10.93113988 53.1022324 8.84816947 57.66701358 4 63 C3.50757813 63.55816406 3.01515625 64.11632812 2.5078125 64.69140625 C-4.06681602 71.21697038 -13.50137014 73.17317325 -22.5 73.5 C-32.87936825 73.1234812 -42.39083497 70.20868266 -50 63 C-50.55300781 62.48695312 -51.10601562 61.97390625 -51.67578125 61.4453125 C-59.35158615 53.48380766 -61.0964645 42.69550129 -61 32 C-60.31306615 20.03999102 -57.79149176 9.59612528 -49 1 C-34.87022399 -9.16952737 -14.25821873 -11.40657498 0 0 Z M-39 15 C-40.30918991 17.93337288 -41.22648029 20.8855654 -42 24 C-33.15466036 28.42266982 -15.77459104 24.55068119 -6 24 C-6.73322077 18.02467215 -8.44894264 14.88409206 -13 11 C-21.59900446 6.23023971 -32.54053165 6.77885846 -39 15 Z " fill="#F2F2F2" transform="translate(496,65)"/>
<path d="M0 0 C1.18190918 0.00628418 1.18190918 0.00628418 2.38769531 0.01269531 C10.99661942 0.17941119 18.3031346 1.75981886 25.125 7.3125 C30.45740686 12.88728899 32.34519296 17.7474865 32.44384766 25.40966797 C32.46371735 26.59043915 32.48358704 27.77121033 32.50405884 28.98776245 C32.51561005 30.24734772 32.52716125 31.50693298 32.5390625 32.8046875 C32.55842865 34.10576447 32.5777948 35.40684143 32.5977478 36.74734497 C32.64887939 40.18970764 32.68860588 43.63210922 32.72589111 47.074646 C32.76605048 50.59413121 32.8170881 54.11345723 32.8671875 57.6328125 C32.96372176 64.5259315 33.04719118 71.41914445 33.125 78.3125 C27.845 78.3125 22.565 78.3125 17.125 78.3125 C16.135 76.0025 15.145 73.6925 14.125 71.3125 C13.54492188 71.72242188 12.96484375 72.13234375 12.3671875 72.5546875 C11.58601562 73.09351563 10.80484375 73.63234375 10 74.1875 C9.23429688 74.72117187 8.46859375 75.25484375 7.6796875 75.8046875 C0.17158485 80.2360753 -9.18299116 81.10782178 -17.7265625 79.9140625 C-24.74651949 78.0667054 -30.48318321 74.55302598 -34.8125 68.6875 C-37.11146695 61.38489911 -37.99731302 53.57596779 -35.0625 46.34375 C-31.13177379 39.62013937 -24.98660063 36.32423472 -17.70703125 34.15625 C-7.71137812 31.95537225 2.86799258 30.1619133 13.125 30.3125 C12.93246334 24.18451662 12.93246334 24.18451662 10.3125 18.8125 C5.50398142 15.51523011 -0.24567232 15.85005918 -5.875 16.3125 C-9.36234008 17.09671978 -9.36234008 17.09671978 -11.875 19.3125 C-13.24731937 21.9579978 -14.02384885 24.42804332 -14.875 27.3125 C-20.485 27.3125 -26.095 27.3125 -31.875 27.3125 C-31.875 18.60559812 -31.0077075 14.93984553 -25.5 8.5625 C-17.5661232 1.76203417 -10.19233196 -0.07426903 0 0 Z M-0.8125 45.5625 C-1.58529297 45.67207031 -2.35808594 45.78164062 -3.15429688 45.89453125 C-8.51918226 46.7561781 -12.35337413 48.27057177 -16.875 51.3125 C-18.44435594 54.45121188 -18.22701103 56.85105822 -17.875 60.3125 C-16.27782421 63.49578877 -16.27782421 63.49578877 -12.875 65.3125 C-5.56685254 66.63636176 0.65583487 65.47470752 7.05859375 61.78515625 C10.93345392 59.02367745 12.76234468 56.41590088 13.57421875 51.70703125 C13.84230909 49.23851108 14.0269551 46.79303594 14.125 44.3125 C9.01556559 44.1489981 4.21310302 44.75339877 -0.8125 45.5625 Z " fill="#F3F3F3" transform="translate(572.875,178.6875)"/>
<path d="M0 0 C29.37 0 58.74 0 89 0 C89 5.94 89 11.88 89 18 C77.45 18 65.9 18 54 18 C54.01571045 21.84664307 54.01571045 21.84664307 54.03173828 25.77099609 C54.06482677 34.22872964 54.08694914 42.686466 54.10362434 51.14424706 C54.11407693 56.27393381 54.12826293 61.40355444 54.15087891 66.53320312 C54.17255483 71.48040037 54.18455751 76.42753388 54.18975449 81.37477493 C54.19345971 83.26548898 54.20069473 85.15619941 54.21146011 87.04688644 C54.22590533 89.68807357 54.22798088 92.3289948 54.22705078 94.97021484 C54.23424133 95.75783707 54.24143188 96.54545929 54.24884033 97.35694885 C54.22810432 102.77189568 54.22810432 102.77189568 52 105 C49.45770841 105.17201285 47.03850004 105.23257617 44.5 105.1875 C43.81035156 105.18685547 43.12070312 105.18621094 42.41015625 105.18554688 C37.28111049 105.14055525 37.28111049 105.14055525 35 104 C35 75.62 35 47.24 35 18 C23.45 18 11.9 18 0 18 C0 12.06 0 6.12 0 0 Z " fill="#F1F1F1" transform="translate(357,31)"/>
<path d="M0 0 C8.29841386 6.06370142 12.40500876 12.43690429 14.56640625 22.48828125 C14.56640625 23.47828125 14.56640625 24.46828125 14.56640625 25.48828125 C8.62640625 25.48828125 2.68640625 25.48828125 -3.43359375 25.48828125 C-4.60546875 23.2421875 -5.77734375 20.99609375 -6.94921875 18.75 C-9.23422188 15.26837681 -11.51220803 13.79540982 -15.43359375 12.48828125 C-20.94301901 11.90073765 -26.17683927 11.79534384 -30.8984375 14.9765625 C-36.2486507 20.24509306 -38.15899219 27.38166605 -38.5 34.6875 C-38.31246224 42.59718081 -37.27565888 49.76044645 -31.43359375 55.48828125 C-26.24217985 59.32003913 -20.63167504 59.11734025 -14.43359375 58.48828125 C-10.96537675 57.83764339 -10.96537675 57.83764339 -8.43359375 55.48828125 C-6.94204268 52.93847886 -5.68945488 50.37676185 -4.51171875 47.66796875 C-3.43359375 45.48828125 -3.43359375 45.48828125 -1.43359375 44.48828125 C1.28400733 44.41646304 3.97500013 44.39528619 6.69140625 44.42578125 C7.82255859 44.43254883 7.82255859 44.43254883 8.9765625 44.43945312 C10.83987752 44.45124626 12.7031518 44.46918183 14.56640625 44.48828125 C13.77593996 53.4995969 10.93365614 60.90745484 4.56640625 67.48828125 C-5.06165041 74.79399259 -14.5081294 76.56995602 -26.43359375 75.48828125 C-37.35981729 73.30799174 -45.76275351 69.00725766 -52.11328125 59.70703125 C-56.75169722 51.91229673 -57.79723218 44.88581796 -57.87109375 35.92578125 C-57.88124512 35.05155518 -57.89139648 34.1773291 -57.90185547 33.27661133 C-57.7570619 22.39771997 -54.56820417 13.73366934 -47.43359375 5.48828125 C-35.21635207 -5.91287749 -14.49606627 -9.00477953 0 0 Z " fill="#F2F2F2" transform="translate(573.43359375,62.51171875)"/>
<path d="M0 0 C1.051875 0.53625 2.10375 1.0725 3.1875 1.625 C11.14542475 8.34502535 14.0200366 15.98371454 16 26 C9.73 26 3.46 26 -3 26 C-7 18 -7 18 -7 16 C-14.35730021 13.01731073 -19.96258831 11.92335688 -27.75 14 C-32.31118119 16.80688073 -35.05240163 20.71252659 -36.54418945 25.88793945 C-38.07877284 32.9986416 -38.47683651 43.14370454 -35.25 49.8125 C-31.63110378 54.93926965 -29.23790117 57.53225855 -23 59 C-16.57694356 59.58391422 -11.78704255 58.18443876 -6.6875 54.1875 C-4.50176658 51.60221806 -4.50176658 51.60221806 -3 46 C2.94 45.67 8.88 45.34 15 45 C14.56519761 53.98591602 12.06898382 61.41017116 5.5 67.8125 C-2.98681209 74.50677047 -12.6083921 76.88103497 -23.28515625 76.484375 C-33.41266533 75.16385857 -43.06824363 70.85505322 -49.7109375 62.96875 C-58.06469097 51.39574519 -58.59095523 37.63288409 -56.53125 23.8671875 C-53.82869352 13.60390753 -46.89908631 5.12690799 -37.8515625 -0.28515625 C-26.56775283 -6.13679733 -11.11397895 -6.31928028 0 0 Z " fill="#F4F4F4" transform="translate(671,183)"/>
<path d="M0 0 C0.62668699 24.28653125 0.62668699 24.28653125 -3 33 C-3.26683594 33.68449219 -3.53367187 34.36898437 -3.80859375 35.07421875 C-5.97378716 39.97236741 -9.07250264 44.17216113 -12.57788086 48.20019531 C-15.02464175 50.95759726 -15.02464175 50.95759726 -17.14160156 53.88867188 C-21.79364113 59.27333041 -25.51664765 62.14480352 -32.75390625 62.88745117 C-39.59568105 63.2181668 -46.41061975 62.96131944 -53.25 62.6875 C-55.65223142 62.63224835 -58.05458522 62.58207145 -60.45703125 62.53710938 C-66.30738377 62.41665063 -72.15311532 62.23325798 -78 62 C-78 60.68 -78 59.36 -78 58 C-77.4740625 57.77699219 -76.948125 57.55398437 -76.40625 57.32421875 C-73.13472897 55.52382 -70.37202261 53.17643383 -67.5 50.8125 C-61.38407222 45.8410599 -55.14055254 41.0728472 -48.8125 36.375 C-42.36512341 31.58110636 -36.11457988 26.67597224 -29.99609375 21.46875 C-25.04651365 17.39034762 -19.88115094 13.60406744 -14.73046875 9.78515625 C-10.95079967 6.97971713 -7.25780674 4.07389736 -3.6015625 1.109375 C-2 0 -2 0 0 0 Z " fill="#F4F4F4" transform="translate(178,197)"/>
</svg>
